<svg width="150" height="25" viewBox="0 0 150 25" fill="none" xmlns="http://www.w3.org/2000/svg">
<path d="M16.2414 10.904L13.4574 12.504V12.568L16.2414 14.168V21.976L12.5294 24.12H0.401428V1.72001H12.5294L16.2414 3.86401V10.904ZM4.88143 14.456V20.28H11.7614V14.456H4.88143ZM4.88143 5.56001V10.616H11.7614V5.56001H4.88143Z" fill="#3D5781"/>
<path d="M25.0747 24.12L21.3627 21.976V0.76001H25.7467V20.376H28.9467V24.12H25.0747Z" fill="#3D5781"/>
<path d="M46.0714 22.136L42.3594 24.28H35.5434L31.8314 22.136V10.104L35.5434 7.96001H42.3594L46.0714 10.104V22.136ZM36.2154 11.704V20.536H41.6874V11.704H36.2154Z" fill="#3D5781"/>
<path d="M55.2467 11.864V20.376H63.1827V24.12H54.5747L50.8627 21.976V10.264L54.5747 8.12001H63.1827V11.864H55.2467Z" fill="#3D5781"/>
<path d="M71.7154 0.76001V14.552H71.7794L76.7394 8.12001H81.7634L76.0354 15.256L82.7234 24.12H77.6354L73.4754 18.456L71.7154 20.664V24.12H67.3314V0.76001H71.7154Z" fill="#3D5781"/>
<path d="M85.2764 12.76V3.70401L88.9884 1.56001H97.0844L100.796 3.70401V7.96001H96.3164V5.40001H89.7564V10.744H97.0844L100.796 12.888V22.136L97.0844 24.28H88.6684L84.9564 22.136V17.88H89.4364V20.44H96.3164V14.904H88.9884L85.2764 12.76Z" fill="#3D5781"/>
<path d="M109.669 17.816V20.6H114.181V17.816H109.669ZM108.997 24.28L105.285 22.136V16.6L108.997 14.456H114.181V11.864H106.885V8.12001H114.853L118.565 10.264V24.28H116.453L114.181 22.968L111.909 24.28H108.997Z" fill="#3D5781"/>
<path d="M122.083 11.864V8.12001H125.027V2.90401L128.739 0.76001H132.931V4.50401H129.411V8.12001H132.931V11.864H129.411V24.12H125.027V11.864H122.083Z" fill="#3D5781"/>
<path d="M149.736 20.376V24.12H140.168L136.456 21.976V10.104L140.168 7.96001H146.024L149.736 10.104V17.752H140.84V20.376H149.736ZM140.84 11.704V14.456H145.352V11.704H140.84Z" fill="#3D5781"/>
</svg>
