<svg width="205" height="23" viewBox="0 0 205 23" fill="none" xmlns="http://www.w3.org/2000/svg">
<path d="M12 16.16H16.48V20.736L12.768 22.88H3.712L0 20.736V2.30404L3.712 0.160034H12.768L16.48 2.30404V6.88003H12V4.00003H4.48V19.04H12V16.16Z" fill="#3D5781"/>
<path d="M26.0737 13.12V22.72H21.5938V0.320034H26.0737V9.28004H34.8737V0.320034H39.3538V22.72H34.8737V13.12H26.0737Z" fill="#3D5781"/>
<path d="M55.1493 0.320034L63.1493 22.72H58.7332L57.0373 17.888H48.6533L46.9572 22.72H42.5412L50.5413 0.320034H55.1493ZM52.8133 5.95203L49.9972 14.048H55.6613L52.8773 5.95203H52.8133Z" fill="#3D5781"/>
<path d="M66.3438 22.72V0.320034H70.8238V22.72H66.3438Z" fill="#3D5781"/>
<path d="M80.73 8.22404V22.72H76.25V0.320034H80.442L90.106 14.816H90.17V0.320034H94.65V22.72H90.458L80.794 8.22404H80.73Z" fill="#3D5781"/>
<path d="M108.094 14.88V11.04H116.254V20.736L112.542 22.88H103.486L99.7738 20.736V2.30404L103.486 0.160034H112.542L116.254 2.30404V6.88003H111.774V4.00003H104.254V19.04H111.774V14.88H108.094Z" fill="#3D5781"/>
<path d="M134.335 0.320034H138.815V20.736L135.103 22.88H125.087L121.375 20.736V0.320034H125.855V18.72H134.335V0.320034Z" fill="#3D5781"/>
<path d="M154.618 0.320034L162.618 22.72H158.202L156.506 17.888H148.122L146.426 22.72H142.01L150.01 0.320034H154.618ZM152.282 5.95203L149.466 14.048H155.13L152.346 5.95203H152.282Z" fill="#3D5781"/>
<path d="M182.805 22.72H177.876L173.077 14.272H170.292V22.72H165.812V0.320034H177.941L181.652 2.46404V12.128L177.941 14.272L182.805 22.72ZM170.292 4.16003V10.432H177.173V4.16003H170.292Z" fill="#3D5781"/>
<path d="M204.534 20.576L200.822 22.72H187.094V0.320034H200.822L204.534 2.46404V20.576ZM191.574 4.16003V18.88H200.054V4.16003H191.574Z" fill="#3D5781"/>
</svg>
