<svg width="184" height="24" viewBox="0 0 184 24" fill="none" xmlns="http://www.w3.org/2000/svg">
<path d="M12.5601 16.52H17.0401V21.096L13.3281 23.24H4.27206L0.560059 21.096V2.66399L4.27206 0.519989H13.3281L17.0401 2.66399V7.23999H12.5601V4.35999H5.04006V19.4H12.5601V16.52Z" fill="#3D5781"/>
<path d="M39.1458 23.08H34.2178L29.4178 14.632H26.6338V23.08H22.1538V0.679989H34.2818L37.9938 2.82399V12.488L34.2818 14.632L39.1458 23.08ZM26.6338 4.51999V10.792H33.5138V4.51999H26.6338Z" fill="#3D5781"/>
<path d="M48.3951 23.08V13.512L41.1951 0.679989H46.0591L50.6031 9.06399H50.6671L55.2431 0.679989H60.1071L52.8751 13.544V23.08H48.3951Z" fill="#3D5781"/>
<path d="M63.3101 23.08V0.679989H75.1181L78.8301 2.82399V12.808L75.1181 14.952H67.7901V23.08H63.3101ZM67.7901 4.51999V11.112H74.3501V4.51999H67.7901Z" fill="#3D5781"/>
<path d="M91.9181 4.51999V23.08H87.4381V4.51999H81.3901V0.679989H97.9661V4.51999H91.9181Z" fill="#3D5781"/>
<path d="M118.938 21.096L115.226 23.24H105.21L101.498 21.096V2.66399L105.21 0.519989H115.226L118.938 2.66399V21.096ZM105.978 4.35999V19.4H114.458V4.35999H105.978Z" fill="#3D5781"/>
<path d="M128.853 8.58399V23.08H124.373V0.679989H128.565L138.229 15.176H138.293V0.679989H142.773V23.08H138.581L128.917 8.58399H128.853Z" fill="#3D5781"/>
<path d="M152.696 13.48V19.24H161.624V23.08H148.216V0.679989H161.624V4.51999H152.696V9.63999H159.704V13.48H152.696Z" fill="#3D5781"/>
<path d="M163.859 23.08L171.091 11.624L164.179 0.679989H169.235L173.619 7.62399L178.035 0.679989H183.091L176.147 11.624L183.411 23.08H178.355L173.619 15.624L168.915 23.08H163.859Z" fill="#3D5781"/>
</svg>
