<svg width="171" height="30" viewBox="0 0 171 30" fill="none" xmlns="http://www.w3.org/2000/svg">
<path d="M12.7856 16.4H17.2656V20.976L13.5536 23.12H4.49764L0.785645 20.976V2.54399L4.49764 0.399994H13.5536L17.2656 2.54399V7.11999H12.7856V4.23999H5.26565V19.28H12.7856V16.4Z" fill="#3D5781"/>
<path d="M31.9474 10.704H26.4434V22.96H22.0594V6.96H25.6754L26.4434 8.27199L28.7154 6.96H31.9474V10.704Z" fill="#3D5781"/>
<path d="M36.4011 29.36L39.3451 21.84L33.2331 6.96H37.6171L41.5531 16.368H41.6171L45.3291 6.96H49.7131L40.7211 29.36H36.4011Z" fill="#3D5781"/>
<path d="M63.4386 23.12H59.2466L56.9746 21.808V29.36H52.5906V6.8H56.2066L56.9746 8.11199L59.2466 6.8H63.4386L67.1506 8.94399V20.976L63.4386 23.12ZM56.9746 10.544V19.376H62.7666V10.544H56.9746Z" fill="#3D5781"/>
<path d="M70.6856 10.704V6.96H73.6296V4.27199L78.0136 1.74399V6.96H81.5336V10.704H78.0136V19.216H81.5336V22.96H77.3416L73.6296 20.816V10.704H70.6856Z" fill="#3D5781"/>
<path d="M89.4284 16.656V19.44H93.9404V16.656H89.4284ZM88.7564 23.12L85.0444 20.976V15.44L88.7564 13.296H93.9404V10.704H86.6444V6.96H94.6124L98.3244 9.10399V23.12H96.2124L93.9404 21.808L91.6684 23.12H88.7564Z" fill="#3D5781"/>
<path d="M115.442 16.4H119.922V20.976L116.21 23.12H107.154L103.442 20.976V2.54399L107.154 0.399994H116.21L119.922 2.54399V7.11999H115.442V4.23999H107.922V19.28H115.442V16.4Z" fill="#3D5781"/>
<path d="M138.956 20.976L135.244 23.12H128.428L124.716 20.976V8.94399L128.428 6.8H135.244L138.956 8.94399V20.976ZM129.1 10.544V19.376H134.572V10.544H129.1Z" fill="#3D5781"/>
<path d="M153.635 10.704H148.131V22.96H143.747V6.96H147.363L148.131 8.27199L150.403 6.96H153.635V10.704Z" fill="#3D5781"/>
<path d="M170.121 19.216V22.96H160.553L156.841 20.816V8.94399L160.553 6.8H166.409L170.121 8.94399V16.592H161.225V19.216H170.121ZM161.225 10.544V13.296H165.737V10.544H161.225Z" fill="#3D5781"/>
</svg>
