<svg width="116" height="22" viewBox="0 0 116 22" fill="none" xmlns="http://www.w3.org/2000/svg">
<path d="M9.4592 2.92705C9.75855 2.00574 11.062 2.00574 11.3613 2.92705L12.523 6.50233C12.6569 6.91435 13.0408 7.19331 13.474 7.19331L17.2333 7.19331C18.202 7.19331 18.6048 8.43293 17.8211 9.00233L14.7798 11.212C14.4293 11.4666 14.2826 11.918 14.4165 12.33L15.5782 15.9053C15.8775 16.8266 14.8231 17.5927 14.0394 17.0233L10.998 14.8137C10.6476 14.559 10.173 14.559 9.82247 14.8137L6.78116 17.0233C5.99745 17.5927 4.94297 16.8266 5.24232 15.9053L6.404 12.33C6.53787 11.918 6.39121 11.4666 6.04072 11.212L2.99941 9.00233C2.2157 8.43293 2.61847 7.19331 3.5872 7.19331L7.34646 7.19331C7.77969 7.19331 8.16365 6.91435 8.29752 6.50233L9.4592 2.92705Z" fill="#FF00DD"/>
<path d="M33.2541 3.6707C33.5534 2.74939 34.8568 2.74939 35.1562 3.6707L36.3179 7.24598C36.4517 7.658 36.8357 7.93696 37.2689 7.93696L41.0282 7.93696C41.9969 7.93696 42.3997 9.17658 41.616 9.74598L38.5746 11.9556C38.2242 12.2103 38.0775 12.6616 38.2114 13.0737L39.3731 16.6489C39.6724 17.5702 38.6179 18.3364 37.8342 17.767L34.7929 15.5573C34.4424 15.3027 33.9678 15.3027 33.6173 15.5573L30.576 17.767C29.7923 18.3364 28.7378 17.5702 29.0372 16.6489L30.1989 13.0737C30.3327 12.6616 30.1861 12.2103 29.8356 11.9556L26.7943 9.74598C26.0106 9.17658 26.4133 7.93696 27.3821 7.93696L31.1413 7.93696C31.5746 7.93696 31.9585 7.658 32.0924 7.24598L33.2541 3.6707Z" fill="#FF00DD"/>
<path d="M57.0489 2.92705C57.3483 2.00574 58.6517 2.00574 58.951 2.92705L60.1127 6.50233C60.2466 6.91435 60.6305 7.19331 61.0638 7.19331L64.823 7.19331C65.7918 7.19331 66.1945 8.43293 65.4108 9.00233L62.3695 11.212C62.019 11.4666 61.8724 11.918 62.0062 12.33L63.1679 15.9053C63.4673 16.8266 62.4128 17.5927 61.6291 17.0233L58.5878 14.8137C58.2373 14.559 57.7627 14.559 57.4122 14.8137L54.3709 17.0233C53.5872 17.5927 52.5327 16.8266 52.832 15.9053L53.9937 12.33C54.1276 11.918 53.9809 11.4666 53.6304 11.212L50.5891 9.00233C49.8054 8.43293 50.2082 7.19331 51.1769 7.19331L54.9362 7.19331C55.3694 7.19331 55.7534 6.91435 55.8872 6.50233L57.0489 2.92705Z" fill="#FF00DD"/>
<path d="M80.8438 2.92705C81.1432 2.00574 82.4466 2.00574 82.746 2.92705L83.9076 6.50233C84.0415 6.91435 84.4255 7.19331 84.8587 7.19331L88.618 7.19331C89.5867 7.19331 89.9895 8.43293 89.2057 9.00233L86.1644 11.212C85.8139 11.4666 85.6673 11.918 85.8012 12.33L86.9628 15.9053C87.2622 16.8266 86.2077 17.5927 85.424 17.0233L82.3827 14.8137C82.0322 14.559 81.5576 14.559 81.2071 14.8137L78.1658 17.0233C77.3821 17.5927 76.3276 16.8266 76.627 15.9053L77.7886 12.33C77.9225 11.918 77.7759 11.4666 77.4254 11.212L74.3841 9.00233C73.6003 8.43293 74.0031 7.19331 74.9718 7.19331L78.7311 7.19331C79.1643 7.19331 79.5483 6.91435 79.6822 6.50233L80.8438 2.92705Z" fill="#FF00DD"/>
<path d="M104.639 2.92705C104.938 2.00574 106.241 2.00574 106.541 2.92705L107.702 6.50233C107.836 6.91435 108.22 7.19331 108.654 7.19331L112.413 7.19331C113.382 7.19331 113.784 8.43293 113.001 9.00233L109.959 11.212C109.609 11.4666 109.462 11.918 109.596 12.33L110.758 15.9053C111.057 16.8266 110.003 17.5927 109.219 17.0233L106.178 14.8137C105.827 14.559 105.352 14.559 105.002 14.8137L101.961 17.0233C101.177 17.5927 100.122 16.8266 100.422 15.9053L101.583 12.33C101.717 11.918 101.571 11.4666 101.22 11.212L98.1789 9.00233C97.3952 8.43293 97.798 7.19331 98.7667 7.19331L102.526 7.19331C102.959 7.19331 103.343 6.91435 103.477 6.50233L104.639 2.92705Z" fill="#FF00DD"/>
</svg>
