<svg width="27" height="24" viewBox="0 0 27 24" fill="none" xmlns="http://www.w3.org/2000/svg">
<path d="M13.5 22.1538C18.2794 22.1538 22.1539 18.2794 22.1539 13.5C22.1539 8.72059 18.2794 4.84613 13.5 4.84613C8.72062 4.84613 4.84616 8.72059 4.84616 13.5C4.84616 18.2794 8.72062 22.1538 13.5 22.1538Z" stroke="white" stroke-width="2" stroke-linecap="round" stroke-linejoin="round"/>
<path d="M4.84615 13.5H1" stroke="white" stroke-width="2" stroke-linecap="round" stroke-linejoin="round"/>
<path d="M1 20.2308C1.95958 20.2336 2.9084 20.0288 3.7814 19.6305C4.6544 19.2322 5.43092 18.6498 6.05769 17.9232" stroke="white" stroke-width="2" stroke-linecap="round" stroke-linejoin="round"/>
<path d="M6.05769 9.07695C5.43092 8.35035 4.6544 7.76791 3.7814 7.36958C2.9084 6.97125 1.95958 6.76646 1 6.76925" stroke="white" stroke-width="2" stroke-linecap="round" stroke-linejoin="round"/>
<path d="M22.1538 13.5H26" stroke="white" stroke-width="2" stroke-linecap="round" stroke-linejoin="round"/>
<path d="M26 20.2308C25.0404 20.2336 24.0916 20.0288 23.2186 19.6305C22.3456 19.2322 21.5691 18.6498 20.9423 17.9232" stroke="white" stroke-width="2" stroke-linecap="round" stroke-linejoin="round"/>
<path d="M20.9423 9.07695C21.5691 8.35035 22.3456 7.76791 23.2186 7.36958C24.0916 6.97125 25.0404 6.76646 26 6.76925" stroke="white" stroke-width="2" stroke-linecap="round" stroke-linejoin="round"/>
<path d="M15.8846 5.17308C16.6205 4.75276 17.2321 4.1454 17.6577 3.41256C18.0832 2.67972 18.3074 1.84742 18.3077 1" stroke="white" stroke-width="2" stroke-linecap="round" stroke-linejoin="round"/>
<path d="M8.69231 1C8.69258 1.84742 8.91684 2.67972 9.34236 3.41256C9.76788 4.1454 10.3795 4.75276 11.1154 5.17308" stroke="white" stroke-width="2" stroke-linecap="round" stroke-linejoin="round"/>
<path d="M5.05769 11.5769H21.9423" stroke="white" stroke-width="2" stroke-linecap="round" stroke-linejoin="round"/>
</svg>
