<svg width="102" height="23" viewBox="0 0 102 23" fill="none" xmlns="http://www.w3.org/2000/svg">
<path d="M18.9034 22.72V7.93601H18.8394L13.7834 22.72H9.52742L4.43942 7.74401H4.37542V22.72H0.0554199V0.320007H6.00742L11.6394 16.8H11.7034L17.3034 0.320007H23.2234V22.72H18.9034Z" fill="#3D5781"/>
<path d="M33.1292 13.12V18.88H42.0572V22.72H28.6492V0.320007H42.0572V4.16001H33.1292V9.28001H40.1372V13.12H33.1292Z" fill="#3D5781"/>
<path d="M54.8197 4.16001V22.72H50.3397V4.16001H44.2917V0.320007H60.8677V4.16001H54.8197Z" fill="#3D5781"/>
<path d="M73.1734 0.320007L81.1734 22.72H76.7574L75.0614 17.888H66.6774L64.9814 22.72H60.5654L68.5654 0.320007H73.1734ZM70.8374 5.95201L68.0214 14.048H73.6854L70.9014 5.95201H70.8374Z" fill="#3D5781"/>
<path d="M82.4479 22.72L89.6799 11.264L82.7679 0.320007H87.8239L92.2079 7.26401L96.6239 0.320007H101.68L94.7359 11.264L102 22.72H96.9439L92.2079 15.264L87.5039 22.72H82.4479Z" fill="#3D5781"/>
</svg>
