<svg width="82" height="24" viewBox="0 0 82 24" fill="none" xmlns="http://www.w3.org/2000/svg">
<path d="M18.848 23.08V8.29599H18.784L13.728 23.08H9.472L4.384 8.10399H4.32V23.08H0V0.679993H5.952L11.584 17.16H11.648L17.248 0.679993H23.168V23.08H18.848Z" fill="#3D5781"/>
<path d="M33.0737 13.48V19.24H42.0018V23.08H28.5938V0.679993H42.0018V4.51999H33.0737V9.63999H40.0818V13.48H33.0737Z" fill="#3D5781"/>
<path d="M54.7643 4.51999V23.08H50.2843V4.51999H44.2363V0.679993H60.8123V4.51999H54.7643Z" fill="#3D5781"/>
<path d="M69.3037 23.08V13.512L62.1037 0.679993H66.9678L71.5117 9.06399H71.5758L76.1517 0.679993H81.0157L73.7838 13.544V23.08H69.3037Z" fill="#3D5781"/>
</svg>
