<svg width="28" height="29" viewBox="0 0 28 29" fill="none" xmlns="http://www.w3.org/2000/svg">
<path d="M20.956 2.47042C18.7409 1.49998 16.3608 1 13.9564 1C11.552 1 9.17202 1.49998 6.95688 2.47042M18.3562 6.95366C15.529 5.9573 12.4639 5.9573 9.63671 6.95366M20.996 28C21.9866 28.0007 22.9619 27.7469 23.8349 27.2612C24.7079 26.7755 25.4515 26.0731 25.9992 25.2165C26.547 24.3599 26.8819 23.3759 26.974 22.3524C27.0661 21.3288 26.9126 20.2974 26.5272 19.3504C26.1417 18.4034 25.5364 17.5701 24.7651 16.925C23.9939 16.2799 23.0807 15.8431 22.1072 15.6534C21.1336 15.4638 20.13 15.5272 19.1858 15.8382C18.2416 16.1491 17.3864 16.6978 16.6963 17.4353C16.2908 15.9493 15.4939 14.6101 14.3952 13.5684C13.2966 12.5266 11.9397 11.8236 10.4772 11.5383C9.01469 11.253 7.50447 11.3967 6.11635 11.9534C4.72823 12.51 3.51724 13.4575 2.61951 14.6893C1.72179 15.9211 1.17292 17.3883 1.03462 18.9261C0.896325 20.4639 1.17407 22.0112 1.83665 23.3942C2.49922 24.7771 3.52035 25.9408 4.78523 26.7545C6.05012 27.5681 7.50861 27.9995 8.99675 28H20.996Z" stroke="white" stroke-width="2" stroke-linecap="round" stroke-linejoin="round"/>
</svg>
