<svg width="189" height="25" viewBox="0 0 189 25" fill="none" xmlns="http://www.w3.org/2000/svg">
<path d="M0.924126 12.76V3.70401L4.63613 1.56001H12.7321L16.4441 3.70401V7.96001H11.9641V5.40001H5.40413V10.744H12.7321L16.4441 12.888V22.136L12.7321 24.28H4.31613L0.604126 22.136V17.88H5.08413V20.44H11.9641V14.904H4.63613L0.924126 12.76Z" fill="#3D5781"/>
<path d="M34.8529 20.376V24.12H25.2849L21.5729 21.976V10.104L25.2849 7.96001H31.1409L34.8529 10.104V17.752H25.9569V20.376H34.8529ZM25.9569 11.704V14.456H30.4689V11.704H25.9569Z" fill="#3D5781"/>
<path d="M44.0506 11.864V20.376H51.9866V24.12H43.3786L39.6666 21.976V10.264L43.3786 8.12001H51.9866V11.864H44.0506Z" fill="#3D5781"/>
<path d="M56.1354 22.136V8.12001H60.5194V20.536H65.9914V8.12001H70.3754V24.28H66.7594L65.9914 22.968L63.7194 24.28H59.8474L56.1354 22.136Z" fill="#3D5781"/>
<path d="M85.0546 11.864H79.5506V24.12H75.1666V8.12001H78.7826L79.5506 9.43201L81.8226 8.12001H85.0546V11.864Z" fill="#3D5781"/>
<path d="M101.54 20.376V24.12H91.9724L88.2604 21.976V10.104L91.9724 7.96001H97.8284L101.54 10.104V17.752H92.6444V20.376H101.54ZM92.6444 11.704V14.456H97.1564V11.704H92.6444Z" fill="#3D5781"/>
<path d="M118.674 17.56H123.154V22.136L119.442 24.28H110.386L106.674 22.136V3.70401L110.386 1.56001H119.442L123.154 3.70401V8.28001H118.674V5.40001H111.154V20.44H118.674V17.56Z" fill="#3D5781"/>
<path d="M132.332 24.12H127.948V0.76001H132.332V9.27201L134.604 7.96001H138.796L142.508 10.104V24.12H138.124V11.704H132.332V24.12Z" fill="#3D5781"/>
<path d="M151.067 17.816V20.6H155.579V17.816H151.067ZM150.395 24.28L146.683 22.136V16.6L150.395 14.456H155.579V11.864H148.283V8.12001H156.251L159.963 10.264V24.28H157.851L155.579 22.968L153.307 24.28H150.395Z" fill="#3D5781"/>
<path d="M169.144 8.12001V24.12H164.76V8.12001H169.144ZM164.6 5.14401V0.76001H169.304V5.14401H164.6Z" fill="#3D5781"/>
<path d="M188.188 10.104V24.12H183.804V11.704H178.332V24.12H173.948V7.96001H177.564L178.332 9.27201L180.604 7.96001H184.476L188.188 10.104Z" fill="#3D5781"/>
</svg>
