<svg width="292" height="233" viewBox="0 0 292 233" fill="none" xmlns="http://www.w3.org/2000/svg">
<path d="M292 64.7025C292 56.5117 282.123 51 273.876 51C255.525 51 240.648 36.2254 240.648 18C240.648 9.80913 235.099 0 226.851 0H20.1379C9.01606 0 0 8.9543 0 20V213C0 224.046 9.01605 233 20.1379 233H271.862C282.984 233 292 224.046 292 213V64.7025Z" fill="#C4C4C4"/>
<path d="M292 64.7025C292 56.5117 282.123 51 273.876 51C255.525 51 240.648 36.2254 240.648 18C240.648 9.80913 235.099 0 226.851 0H20.1379C9.01606 0 0 8.9543 0 20V213C0 224.046 9.01605 233 20.1379 233H271.862C282.984 233 292 224.046 292 213V64.7025Z" fill="url(#paint0_linear_10_128)" fill-opacity="0.8"/>
<defs>
<linearGradient id="paint0_linear_10_128" x1="146" y1="0" x2="146" y2="233" gradientUnits="userSpaceOnUse">
<stop stop-opacity="0"/>
<stop offset="1" stop-color="#030810"/>
</linearGradient>
</defs>
</svg>
