<svg width="400" height="222" viewBox="0 0 400 222" fill="none" xmlns="http://www.w3.org/2000/svg">
<mask id="path-1-inside-1_10_27" fill="white">
<path fill-rule="evenodd" clip-rule="evenodd" d="M20 71C8.9543 71 0 79.9543 0 91V202C0 213.046 8.95431 222 20 222H380C391.046 222 400 213.046 400 202V20C400 8.9543 391.046 0 380 0H91.5538C80.5082 0 71.5538 8.95431 71.5538 20V51C71.5538 62.0457 62.5995 71 51.5538 71H20Z"/>
</mask>
<path fill-rule="evenodd" clip-rule="evenodd" d="M20 71C8.9543 71 0 79.9543 0 91V202C0 213.046 8.95431 222 20 222H380C391.046 222 400 213.046 400 202V20C400 8.9543 391.046 0 380 0H91.5538C80.5082 0 71.5538 8.95431 71.5538 20V51C71.5538 62.0457 62.5995 71 51.5538 71H20Z" fill="#020E2B"/>
<path d="M1 202V91H-1V202H1ZM380 221H20V223H380V221ZM399 20V202H401V20H399ZM91.5538 1H380V-1H91.5538V1ZM70.5538 20V51H72.5538V20H70.5538ZM51.5538 70H20V72H51.5538V70ZM70.5538 51C70.5538 61.4934 62.0473 70 51.5538 70V72C63.1518 72 72.5538 62.598 72.5538 51H70.5538ZM91.5538 -1C79.9559 -1 70.5538 8.40202 70.5538 20H72.5538C72.5538 9.50659 81.0604 1 91.5538 1V-1ZM401 20C401 8.40202 391.598 -1 380 -1V1C390.493 1 399 9.50659 399 20H401ZM380 223C391.598 223 401 213.598 401 202H399C399 212.493 390.493 221 380 221V223ZM1 91C1 80.5066 9.50658 72 20 72V70C8.40201 70 -1 79.402 -1 91H1ZM-1 202C-1 213.598 8.40203 223 20 223V221C9.50659 221 1 212.493 1 202H-1Z" fill="#3D5781" mask="url(#path-1-inside-1_10_27)"/>
</svg>
