<svg width="189" height="30" viewBox="0 0 189 30" fill="none" xmlns="http://www.w3.org/2000/svg">
<path d="M11.4831 4.8V23.36H7.00314V4.8H0.955139V0.959999H17.5311V4.8H11.4831Z" fill="#3D5781"/>
<path d="M30.6306 11.104H25.1266V23.36H20.7426V7.36H24.3586L25.1266 8.672L27.3986 7.36H30.6306V11.104Z" fill="#3D5781"/>
<path d="M33.8364 21.376V7.36H38.2204V19.776H43.6924V7.36H48.0764V23.52H44.4604L43.6924 22.208L41.4204 23.52H37.5484L33.8364 21.376Z" fill="#3D5781"/>
<path d="M65.5396 15.488V21.216L61.8276 23.36H52.8676V19.616H61.1556V17.152H56.5796L52.8676 15.008V9.504L56.5796 7.36H65.2196V11.104H57.2516V13.344H61.8276L65.5396 15.488Z" fill="#3D5781"/>
<path d="M69.0564 11.104V7.36H72.0004V4.672L76.3844 2.144V7.36H79.9044V11.104H76.3844V19.616H79.9044V23.36H75.7124L72.0004 21.216V11.104H69.0564Z" fill="#3D5781"/>
<path d="M84.3751 12V2.944L88.0871 0.799999H96.1831L99.8951 2.944V7.2H95.4151V4.64H88.8551V9.984H96.1831L99.8951 12.128V21.376L96.1831 23.52H87.7671L84.0551 21.376V17.12H88.5351V19.68H95.4151V14.144H88.0871L84.3751 12Z" fill="#3D5781"/>
<path d="M115.872 23.52H111.68L109.408 22.208V29.76H105.024V7.2H108.64L109.408 8.512L111.68 7.2H115.872L119.584 9.344V21.376L115.872 23.52ZM109.408 10.944V19.776H115.2V10.944H109.408Z" fill="#3D5781"/>
<path d="M128.783 23.36H124.399V0H128.783V8.512L131.055 7.2H135.247L138.959 9.344V23.36H134.575V10.944H128.783V23.36Z" fill="#3D5781"/>
<path d="M157.054 19.616V23.36H147.486L143.774 21.216V9.344L147.486 7.2H153.342L157.054 9.344V16.992H148.158V19.616H157.054ZM148.158 10.944V13.696H152.67V10.944H148.158Z" fill="#3D5781"/>
<path d="M171.756 11.104H166.252V23.36H161.868V7.36H165.484L166.252 8.672L168.524 7.36H171.756V11.104Z" fill="#3D5781"/>
<path d="M188.241 19.616V23.36H178.673L174.961 21.216V9.344L178.673 7.2H184.529L188.241 9.344V16.992H179.345V19.616H188.241ZM179.345 10.944V13.696H183.857V10.944H179.345Z" fill="#3D5781"/>
</svg>
