<svg width="23" height="18" viewBox="0 0 23 18" fill="none" xmlns="http://www.w3.org/2000/svg">
<path d="M22.5 2.09299C21.7246 2.59632 20.8142 2.86358 19.8837 2.86105C20.8785 2.28758 21.6234 1.37648 21.9767 0.300867C21.1521 0.983034 20.113 1.36718 19.0334 1.38894C18.3217 0.675571 17.3926 0.207327 16.3858 0.0544806C15.379 -0.0983656 14.3487 0.0724311 13.4495 0.541239C12.5503 1.01005 11.8307 1.75158 11.3988 2.65455C10.9668 3.55752 10.8458 4.57323 11.0538 5.54924C9.22195 5.4546 7.43094 4.98402 5.79704 4.16804C4.16314 3.35207 2.72288 2.20895 1.56977 0.812903C1.00551 1.81204 0.840296 2.98055 1.10614 4.09207C1.37198 5.2036 2.04996 6.179 3.00872 6.82933C2.28514 6.83933 1.56893 6.68602 0.915698 6.3813C0.933289 7.4123 1.30373 8.40774 1.96777 9.20839C2.6318 10.009 3.55106 10.5686 4.57849 10.7976C3.89456 10.9724 3.17921 10.9943 2.48547 10.8616C2.78473 11.775 3.36779 12.5742 4.15334 13.1479C4.93889 13.7215 5.88778 14.041 6.86773 14.0618C4.79808 15.2904 2.42065 15.933 0 15.918C2.02731 17.2131 4.38215 17.9323 6.80239 17.9954C9.22262 18.0586 11.6133 17.4633 13.7083 16.2757C15.8032 15.0881 17.5203 13.3549 18.6683 11.269C19.8164 9.18314 20.3503 6.8264 20.2108 4.46116C21.0739 3.77046 21.8432 2.97462 22.5 2.09299Z" fill="#B3BBCD"/>
</svg>
