<svg width="26" height="18" viewBox="0 0 26 18" fill="none" xmlns="http://www.w3.org/2000/svg">
<path d="M25.3625 2.73214C25.0438 1.60714 24.2469 0.803572 23.1313 0.482143C21.2188 2.8738e-07 13.0906 0 13.0906 0C13.0906 0 5.12188 2.8738e-07 3.05001 0.482143C1.93438 0.803572 1.1375 1.60714 0.818745 2.73214C0.499995 4.82143 0.5 9 0.5 9C0.5 9 0.500005 13.1786 0.97813 15.2679C1.29688 16.3929 2.09375 17.1964 3.20937 17.5179C5.12187 18 13.25 18 13.25 18C13.25 18 21.2187 18 23.2906 17.5179C24.4062 17.1964 25.2031 16.3929 25.5219 15.2679C26 13.1786 26 9 26 9C26 9 26 4.82143 25.3625 2.73214ZM10.7 12.8571V5.14286L17.3938 9L10.7 12.8571Z" fill="#B3BBCD"/>
</svg>
