<svg width="28" height="24" viewBox="0 0 28 24" fill="none" xmlns="http://www.w3.org/2000/svg">
<path d="M23 14C23 18.9706 18.9706 23 14 23C9.02944 23 5 18.9706 5 14M23 14C23 9.02944 18.9706 5 14 5C9.02944 5 5 9.02944 5 14M23 14H27M5 14H1M1 21C1.99796 21.0029 2.98474 20.7899 3.89266 20.3757C4.80058 19.9614 5.60816 19.3557 6.26 18.6M6.26 9.4C5.60816 8.64434 4.80058 8.0386 3.89266 7.62434C2.98474 7.21008 1.99796 6.9971 1 7M27 21C26.002 21.0029 25.0153 20.7899 24.1073 20.3757C23.1994 19.9614 22.3918 19.3557 21.74 18.6M21.74 9.4C22.3918 8.64434 23.1994 8.0386 24.1073 7.62434C25.0153 7.21008 26.002 6.9971 27 7M16.48 5.34C17.2453 4.90287 17.8814 4.27122 18.3239 3.50906C18.7665 2.74691 18.9997 1.88132 19 1M9 1C9.00028 1.88132 9.23351 2.74691 9.67605 3.50906C10.1186 4.27122 10.7547 4.90287 11.52 5.34M5.22 12H22.78" stroke="white" stroke-width="2" stroke-linecap="round" stroke-linejoin="round"/>
</svg>
