<svg width="28" height="29" viewBox="0 0 28 29" fill="none" xmlns="http://www.w3.org/2000/svg">
<path d="M12.9993 15.5431V28M12.9993 15.5431L8.99956 19.6954M12.9993 15.5431L16.9991 19.6954M23.9987 16.7888C24.7416 16.3439 25.3839 15.7388 25.8824 15.0143C26.3809 14.2898 26.724 13.4628 26.8885 12.5891C27.0531 11.7153 27.0353 10.815 26.8363 9.94899C26.6373 9.08296 26.2618 8.27128 25.7351 7.56867C25.2084 6.86605 24.5427 6.28883 23.7828 5.87592C23.023 5.46301 22.1868 5.224 21.3305 5.17501C20.4741 5.12602 19.6176 5.26819 18.8187 5.59193C18.0198 5.91567 17.297 6.41345 16.6991 7.05173C16.1748 5.12058 14.9948 3.45177 13.3772 2.35381C11.7595 1.25586 9.81368 0.802991 7.89935 1.07894C5.98501 1.35488 4.23164 2.34098 2.96335 3.85494C1.69507 5.3689 0.997646 7.30834 1.00001 9.31473C1.00142 11.2022 1.62215 13.0329 2.75991 14.5051" stroke="white" stroke-width="2" stroke-linecap="round" stroke-linejoin="round"/>
</svg>
