<svg width="28" height="28" viewBox="0 0 28 28" fill="none" xmlns="http://www.w3.org/2000/svg">
<path d="M6 1H3C2.46957 1 1.96086 1.21071 1.58579 1.58579C1.21071 1.96086 1 2.46957 1 3V6M22 1H25C25.5304 1 26.0391 1.21071 26.4142 1.58579C26.7893 1.96086 27 2.46957 27 3V6M6 27H3C2.46957 27 1.96086 26.7893 1.58579 26.4142C1.21071 26.0391 1 25.5304 1 25V22M22 27H25C25.5304 27 26.0391 26.7893 26.4142 26.4142C26.7893 26.0391 27 25.5304 27 25V22M6 19V22H9M14 22V19H11M22 9H19V6M22 16V13H19M19 19V22H22M8 6H12C13.1046 6 14 6.89543 14 8V12C14 13.1046 13.1046 14 12 14H8C6.89543 14 6 13.1046 6 12V8C6 6.89543 6.89543 6 8 6Z" stroke="white" stroke-width="2" stroke-linecap="round" stroke-linejoin="round"/>
</svg>
