<svg width="20" height="18" viewBox="0 0 20 18" fill="none" xmlns="http://www.w3.org/2000/svg">
<path d="M9.75 1.62651C12.3343 1.62651 12.6867 1.62651 13.744 1.62651C14.6837 1.62651 15.1536 1.84337 15.506 1.95181C15.9759 2.16868 16.3283 2.27711 16.6807 2.60241C17.0331 2.92771 17.2681 3.25301 17.3855 3.68675C17.503 4.01205 17.6205 4.44578 17.738 5.31325C17.738 6.28916 17.738 6.50602 17.738 9C17.738 11.494 17.738 11.7108 17.738 12.6867C17.738 13.5542 17.503 13.988 17.3855 14.3133C17.1506 14.747 17.0331 15.0723 16.6807 15.3976C16.3283 15.7229 15.9759 15.9398 15.506 16.0482C15.1536 16.1566 14.6837 16.2651 13.744 16.3735C12.6867 16.3735 12.4518 16.3735 9.75 16.3735C7.04819 16.3735 6.81325 16.3735 5.75603 16.3735C4.81627 16.3735 4.34639 16.1566 3.99398 16.0482C3.5241 15.8313 3.17169 15.7229 2.81928 15.3976C2.46687 15.0723 2.23193 14.747 2.11446 14.3133C1.99699 13.988 1.87952 13.5542 1.76205 12.6867C1.76205 11.7108 1.76205 11.494 1.76205 9C1.76205 6.50602 1.76205 6.28916 1.76205 5.31325C1.76205 4.44578 1.99699 4.01205 2.11446 3.68675C2.3494 3.25301 2.46687 2.92771 2.81928 2.60241C3.17169 2.27711 3.5241 2.06024 3.99398 1.95181C4.34639 1.84337 4.81627 1.73494 5.75603 1.62651C6.81325 1.62651 7.16566 1.62651 9.75 1.62651ZM9.75 0C7.04819 0 6.81325 0 5.75603 0C4.6988 0 3.99398 0.216868 3.40663 0.433736C2.81928 0.650603 2.23193 0.975904 1.64458 1.51807C1.05723 2.06024 0.82229 2.49398 0.46988 3.14458C0.23494 3.68675 0.11747 4.33735 0 5.31325C0 6.28916 0 6.61446 0 9C0 11.494 0 11.7108 0 12.6867C0 13.6627 0.23494 14.3133 0.46988 14.8554C0.70482 15.3976 1.05723 15.9398 1.64458 16.4819C2.23193 17.0241 2.70181 17.241 3.40663 17.5663C3.99398 17.7831 4.6988 17.8916 5.75603 18C6.81325 18 7.16566 18 9.75 18C12.3343 18 12.6867 18 13.744 18C14.8012 18 15.506 17.7831 16.0934 17.5663C16.6807 17.3494 17.2681 17.0241 17.8554 16.4819C18.4428 15.9398 18.6777 15.506 19.0301 14.8554C19.2651 14.3133 19.3825 13.6627 19.5 12.6867C19.5 11.7108 19.5 11.3855 19.5 9C19.5 6.61446 19.5 6.28916 19.5 5.31325C19.5 4.33735 19.2651 3.68675 19.0301 3.14458C18.7952 2.60241 18.4428 2.06024 17.8554 1.51807C17.2681 0.975904 16.7982 0.759037 16.0934 0.433736C15.506 0.216868 14.8012 0.108434 13.744 0C12.6867 0 12.4518 0 9.75 0Z" fill="#B3BBCD"/>
<path d="M9.75 4.33735C6.93072 4.33735 4.6988 6.39759 4.6988 9C4.6988 11.6024 6.93072 13.6627 9.75 13.6627C12.5693 13.6627 14.8012 11.6024 14.8012 9C14.8012 6.39759 12.5693 4.33735 9.75 4.33735ZM9.75 12.0361C7.98795 12.0361 6.46084 10.7349 6.46084 9C6.46084 7.3735 7.87048 5.96386 9.75 5.96386C11.512 5.96386 13.0392 7.26506 13.0392 9C13.0392 10.6265 11.512 12.0361 9.75 12.0361Z" fill="#B3BBCD"/>
<path d="M14.9187 5.31325C15.5674 5.31325 16.0934 4.82778 16.0934 4.22892C16.0934 3.63005 15.5674 3.14458 14.9187 3.14458C14.2699 3.14458 13.744 3.63005 13.744 4.22892C13.744 4.82778 14.2699 5.31325 14.9187 5.31325Z" fill="#B3BBCD"/>
</svg>
